<svg width="20" height="19" viewBox="0 0 20 19" fill="none" xmlns="http://www.w3.org/2000/svg">
<path d="M7 8.9436C9.20914 8.9436 11 7.15274 11 4.9436C11 2.73446 9.20914 0.943604 7 0.943604C4.79086 0.943604 3 2.73446 3 4.9436C3 7.15274 4.79086 8.9436 7 8.9436Z" fill="#637381"/>
<path d="M15 10.9436C16.6569 10.9436 18 9.60046 18 7.9436C18 6.28675 16.6569 4.9436 15 4.9436C13.3431 4.9436 12 6.28675 12 7.9436C12 9.60046 13.3431 10.9436 15 10.9436Z" fill="#637381"/>
<path d="M19 17.9436C19.5523 17.9436 20 17.4959 20 16.9436C19.9984 15.0369 18.9125 13.2971 17.2003 12.4581C15.4882 11.619 13.4479 11.8267 11.94 12.9936C9.93708 10.9985 6.93071 10.4041 4.31923 11.4867C1.70774 12.5694 0.0038243 15.1166 0 17.9436C0 18.4959 0.447715 18.9436 1 18.9436H13C13.5523 18.9436 14 18.4959 14 17.9436" fill="#637381"/>
</svg>
