<svg width="24" height="26" viewBox="0 0 24 26" fill="none" xmlns="http://www.w3.org/2000/svg">
<path d="M5.02297 13.0468C5.02297 12.2504 5.15524 11.4869 5.39132 10.7708L1.25909 7.61523C0.453741 9.2504 0 11.0929 0 13.0468C0 14.9991 0.453183 16.8405 1.25742 18.4745L5.38741 15.3129C5.15356 14.6001 5.02297 13.8393 5.02297 13.0468Z" fill="#FBBC05"/>
<path d="M12.28 5.80197C14.0101 5.80197 15.5729 6.41502 16.8007 7.41819L20.3726 3.85137C18.196 1.9565 15.4054 0.786133 12.28 0.786133C7.42783 0.786133 3.25765 3.56101 1.26074 7.61548L5.39297 10.771C6.3451 7.88076 9.05918 5.80197 12.28 5.80197Z" fill="#EB4335"/>
<path d="M12.1365 20.1985C8.91562 20.1985 6.20155 18.1197 5.24941 15.2295L1.11719 18.3845C3.1141 22.4395 7.28427 25.2144 12.1365 25.2144C15.1313 25.2144 17.9904 24.151 20.1364 22.1586L16.214 19.1262C15.1073 19.8234 13.7137 20.1985 12.1365 20.1985Z" fill="#34A853"/>
<path d="M23.9996 13.0476C23.9996 12.3231 23.8879 11.5429 23.7205 10.8184H12.2793V15.5555H18.865C18.5357 17.1706 17.6394 18.4123 16.3568 19.2205L20.2792 22.2528C22.5334 20.1606 23.9996 17.0441 23.9996 13.0476Z" fill="#4285F4"/>
</svg>
