<svg width="16" height="14" viewBox="0 0 16 14" fill="none" xmlns="http://www.w3.org/2000/svg">
<g filter="url(#filter0_d_7805_2019)">
<path d="M13.3324 5.33333C13.1555 5.33333 12.986 5.40357 12.861 5.5286C12.7359 5.65362 12.6657 5.82319 12.6657 6V10C12.6657 10.1768 12.5955 10.3464 12.4704 10.4714C12.3454 10.5964 12.1758 10.6667 11.999 10.6667H3.99902C3.82221 10.6667 3.65264 10.5964 3.52762 10.4714C3.40259 10.3464 3.33236 10.1768 3.33236 10V2C3.33236 1.82319 3.40259 1.65362 3.52762 1.5286C3.65264 1.40357 3.82221 1.33333 3.99902 1.33333H7.99902C8.17583 1.33333 8.3454 1.2631 8.47043 1.13807C8.59545 1.01305 8.66569 0.843478 8.66569 0.666667C8.66569 0.489856 8.59545 0.320286 8.47043 0.195262C8.3454 0.0702379 8.17583 0 7.99902 0H3.99902C3.46859 0 2.95988 0.210714 2.58481 0.585787C2.20974 0.960859 1.99902 1.46957 1.99902 2V10C1.99902 10.5304 2.20974 11.0391 2.58481 11.4142C2.95988 11.7893 3.46859 12 3.99902 12H11.999C12.5295 12 13.0382 11.7893 13.4132 11.4142C13.7883 11.0391 13.999 10.5304 13.999 10V6C13.999 5.82319 13.9288 5.65362 13.8038 5.5286C13.6787 5.40357 13.5092 5.33333 13.3324 5.33333Z" fill="#1939B7"/>
<path d="M10.6657 1.33333H11.719L7.52569 5.52C7.4632 5.58198 7.41361 5.65571 7.37976 5.73695C7.34592 5.81819 7.32849 5.90533 7.32849 5.99333C7.32849 6.08134 7.34592 6.16848 7.37976 6.24972C7.41361 6.33096 7.4632 6.40469 7.52569 6.46667C7.58767 6.52915 7.6614 6.57875 7.74264 6.61259C7.82388 6.64644 7.91102 6.66387 7.99902 6.66387C8.08703 6.66387 8.17417 6.64644 8.25541 6.61259C8.33665 6.57875 8.41038 6.52915 8.47236 6.46667L12.6657 2.28V3.33333C12.6657 3.51014 12.7359 3.67971 12.861 3.80474C12.986 3.92976 13.1555 4 13.3324 4C13.5092 4 13.6787 3.92976 13.8038 3.80474C13.9288 3.67971 13.999 3.51014 13.999 3.33333V0.666667C13.999 0.489856 13.9288 0.320286 13.8038 0.195262C13.6787 0.0702379 13.5092 0 13.3324 0H10.6657C10.4889 0 10.3193 0.0702379 10.1943 0.195262C10.0693 0.320286 9.99902 0.489856 9.99902 0.666667C9.99902 0.843478 10.0693 1.01305 10.1943 1.13807C10.3193 1.2631 10.4889 1.33333 10.6657 1.33333Z" fill="#1939B7"/>
</g>
<defs>
<filter id="filter0_d_7805_2019" x="-2.00098" y="0" width="20" height="20" filterUnits="userSpaceOnUse" color-interpolation-filters="sRGB">
<feFlood flood-opacity="0" result="BackgroundImageFix"/>
<feColorMatrix in="SourceAlpha" type="matrix" values="0 0 0 0 0 0 0 0 0 0 0 0 0 0 0 0 0 0 127 0" result="hardAlpha"/>
<feOffset dy="4"/>
<feGaussianBlur stdDeviation="2"/>
<feComposite in2="hardAlpha" operator="out"/>
<feColorMatrix type="matrix" values="0 0 0 0 0 0 0 0 0 0 0 0 0 0 0 0 0 0 0.25 0"/>
<feBlend mode="normal" in2="BackgroundImageFix" result="effect1_dropShadow_7805_2019"/>
<feBlend mode="normal" in="SourceGraphic" in2="effect1_dropShadow_7805_2019" result="shape"/>
</filter>
</defs>
</svg>
