<svg width="21" height="20" viewBox="0 0 21 20" fill="none" xmlns="http://www.w3.org/2000/svg">
<path fill-rule="evenodd" clip-rule="evenodd" d="M3.08824 0.443604H17.5C19.2056 0.443604 20.5882 1.82625 20.5882 3.53184V13.826C20.5882 15.5315 19.2056 16.9142 17.5 16.9142H6.74265C6.54396 16.9065 6.34732 16.9566 6.17647 17.0583L1.55441 19.8583C1.39552 19.9526 1.21417 20.0024 1.02941 20.0024C0.852571 20.0019 0.678851 19.9558 0.525 19.8686C0.201263 19.6866 0.000639979 19.3444 0 18.973V3.53184C0 1.82625 1.38265 0.443604 3.08824 0.443604ZM5.14706 8.6789C5.14706 9.24743 5.60794 9.70831 6.17647 9.70831C6.745 9.70831 7.20588 9.24743 7.20588 8.6789C7.20588 8.11037 6.745 7.64949 6.17647 7.64949C5.60794 7.64949 5.14706 8.11037 5.14706 8.6789ZM10.2941 9.70831C9.72559 9.70831 9.26471 9.24743 9.26471 8.6789C9.26471 8.11037 9.72559 7.64949 10.2941 7.64949C10.8626 7.64949 11.3235 8.11037 11.3235 8.6789C11.3235 9.24743 10.8626 9.70831 10.2941 9.70831ZM13.3824 8.6789C13.3824 9.24743 13.8432 9.70831 14.4118 9.70831C14.9803 9.70831 15.4412 9.24743 15.4412 8.6789C15.4412 8.11037 14.9803 7.64949 14.4118 7.64949C13.8432 7.64949 13.3824 8.11037 13.3824 8.6789Z" fill="#637381"/>
</svg>
