<svg width="24" height="25" viewBox="0 0 24 25" fill="none" xmlns="http://www.w3.org/2000/svg">
<path d="M14.438 0.943604C14.6242 0.943609 14.8056 1.00121 14.9561 1.10811C15.1066 1.21501 15.2184 1.36569 15.2753 1.53846L16.2428 4.46817C16.6492 4.66189 17.0379 4.8796 17.4091 5.12475L20.4979 4.47675C20.6801 4.43885 20.8698 4.45827 21.0399 4.53221C21.21 4.60615 21.3516 4.73079 21.4443 4.88818L23.8823 9.00075C23.9754 9.15804 24.0149 9.34009 23.995 9.52064C23.975 9.70118 23.8968 9.8709 23.7715 10.0053L21.6519 12.2853C21.6827 12.7225 21.6827 13.1613 21.6519 13.5985L23.7715 15.8819C23.8968 16.0163 23.975 16.186 23.995 16.3666C24.0149 16.5471 23.9754 16.7292 23.8823 16.8865L21.4443 21.0007C21.3513 21.1578 21.2096 21.2821 21.0396 21.3557C20.8695 21.4293 20.6799 21.4485 20.4979 21.4105L17.4091 20.7625C17.0397 21.0059 16.6492 21.2253 16.2446 21.419L15.2753 24.3487C15.2184 24.5215 15.1066 24.6722 14.9561 24.7791C14.8056 24.886 14.6242 24.9436 14.438 24.9436H9.56196C9.37576 24.9436 9.19435 24.886 9.04388 24.7791C8.89341 24.6722 8.78164 24.5215 8.72466 24.3487L7.75894 21.4207C7.3537 21.2276 6.96282 21.0071 6.58918 20.7607L3.50206 21.4105C3.31993 21.4484 3.13017 21.4289 2.9601 21.355C2.79003 21.2811 2.64842 21.1564 2.55569 20.999L0.117655 16.8865C0.0245565 16.7292 -0.014877 16.5471 0.00504009 16.3666C0.0249572 16.186 0.103196 16.0163 0.228475 15.8819L2.34812 13.5985C2.31742 13.1624 2.31742 12.7248 2.34812 12.2887L0.228475 10.0053C0.103196 9.8709 0.0249572 9.70118 0.00504009 9.52064C-0.014877 9.34009 0.0245565 9.15804 0.117655 9.00075L2.55569 4.88646C2.64868 4.72939 2.79039 4.6051 2.96044 4.53148C3.13049 4.45786 3.32012 4.4387 3.50206 4.47675L6.58918 5.12646C6.9621 4.88132 7.35261 4.66018 7.75894 4.46646L8.72642 1.53846C8.78321 1.36625 8.89445 1.21597 9.04422 1.10912C9.19399 1.00227 9.3746 0.944333 9.56021 0.943604H14.4363H14.438ZM13.7942 2.65789H10.2058L9.20664 5.68703L8.53292 6.0076C8.20173 6.16555 7.88201 6.3454 7.576 6.54589L6.9533 6.95732L3.75888 6.28532L1.96465 9.31617L4.15466 11.6785L4.10189 12.4053C4.07662 12.7638 4.07662 13.1235 4.10189 13.4819L4.15466 14.2087L1.96113 16.571L3.75712 19.6019L6.95154 18.9316L7.57424 19.3413C7.88025 19.5418 8.19997 19.7217 8.53116 19.8796L9.20488 20.2002L10.2058 23.2293H13.7977L14.8004 20.1985L15.4724 19.8796C15.8032 19.722 16.1224 19.5422 16.4275 19.3413L17.0485 18.9316L20.2446 19.6019L22.0389 16.571L19.8471 14.2087L19.8999 13.4819C19.9252 13.1229 19.9252 12.7626 19.8999 12.4036L19.8471 11.6767L22.0406 9.31617L20.2446 6.28532L17.0485 6.95389L16.4275 6.54589C16.1224 6.345 15.8032 6.16513 15.4724 6.0076L14.8004 5.68875L13.796 2.65789H13.7942ZM12 7.80075C13.3996 7.80075 14.7418 8.34258 15.7315 9.30705C16.7212 10.2715 17.2771 11.5796 17.2771 12.9436C17.2771 14.3076 16.7212 15.6157 15.7315 16.5802C14.7418 17.5446 13.3996 18.0865 12 18.0865C10.6004 18.0865 9.25816 17.5446 8.2685 16.5802C7.27885 15.6157 6.72287 14.3076 6.72287 12.9436C6.72287 11.5796 7.27885 10.2715 8.2685 9.30705C9.25816 8.34258 10.6004 7.80075 12 7.80075ZM12 9.51503C11.0669 9.51503 10.1721 9.87626 9.51234 10.5192C8.85257 11.1622 8.48191 12.0343 8.48191 12.9436C8.48191 13.8529 8.85257 14.725 9.51234 15.368C10.1721 16.011 11.0669 16.3722 12 16.3722C12.9331 16.3722 13.8279 16.011 14.4877 15.368C15.1474 14.725 15.5181 13.8529 15.5181 12.9436C15.5181 12.0343 15.1474 11.1622 14.4877 10.5192C13.8279 9.87626 12.9331 9.51503 12 9.51503Z" fill="#637381"/>
</svg>
