<svg width="49" height="47" viewBox="0 0 49 47" fill="none" xmlns="http://www.w3.org/2000/svg">
<path fill-rule="evenodd" clip-rule="evenodd" d="M23.5408 1.25521C21.6897 5.73962 17.4392 15.8616 17.3832 15.9188C17.3479 15.9548 14.3524 16.233 10.7264 16.5362C0.729457 17.3732 -0.00657523 17.5077 0.69461 18.3697C1.01718 18.7666 3.88361 21.3642 7.06367 24.1414C10.2437 26.9186 12.8441 29.5416 12.8422 29.9697C12.8403 30.3983 12.0134 34.3162 11.0042 38.6766C9.99555 43.0371 9.25152 46.6907 9.35088 46.7959C9.45024 46.9012 12.8728 44.9441 16.957 42.4475L24.3828 37.9079L31.809 42.4466C35.8937 44.9432 39.3158 46.9002 39.4138 46.7955C39.5117 46.6902 38.7192 42.7435 37.6526 38.0237L35.7129 29.4431L37.1327 28.1736C37.9135 27.476 40.8364 24.8842 43.6279 22.415C46.4195 19.9457 48.6097 17.8302 48.4957 17.7134C48.2933 17.5073 34.2714 16.0994 32.3779 16.0956C31.5948 16.0942 30.8507 14.7079 28.1863 8.28573C26.4049 3.9916 24.7817 0.287029 24.5796 0.0539923C24.3771 -0.178564 23.91 0.361986 23.5408 1.25521ZM26.4642 15.0986L28.4609 19.8694L31.6018 20.1634C33.3296 20.3253 35.6682 20.6112 36.7993 20.7981L38.8562 21.1388L35.0334 24.4277C32.9312 26.2363 31.211 27.9396 31.211 28.2121C31.211 28.4845 31.6522 30.6265 32.1919 32.9713C32.7316 35.3166 33.1026 37.4427 33.016 37.6964C32.9298 37.9501 31.9056 37.5547 30.7401 36.8181C29.5746 36.081 27.6589 34.9067 26.4835 34.2081L24.3461 32.9382L20.1262 35.5309C17.3135 37.2592 15.8593 37.9141 15.7647 37.4951C15.687 37.1492 16.0576 35.1297 16.5888 33.0069C17.12 30.8841 17.5546 28.8295 17.5546 28.4418C17.5546 28.054 15.8541 26.2522 13.7751 24.4378L9.99602 21.1388L12.0092 20.7981C13.1167 20.6112 15.436 20.3253 17.1637 20.1634L20.3047 19.8694L22.3014 15.0986C23.3991 12.4746 24.3362 10.3278 24.3828 10.3278C24.4294 10.3278 25.3665 12.4746 26.4642 15.0986Z" fill="#484848"/>
</svg>
