<svg width="24" height="24" viewBox="0 0 24 24" fill="none" xmlns="http://www.w3.org/2000/svg">
<path d="M7.57029 9.93555C6.97644 9.93555 6.39594 10.1118 5.90234 10.442C5.40873 10.7722 5.02423 11.2414 4.79752 11.7903C4.57082 12.3392 4.51211 12.943 4.62884 13.5252C4.74557 14.1075 5.03249 14.642 5.45325 15.0611C5.87401 15.4802 6.40968 15.765 6.99241 15.8794C7.57514 15.9938 8.17871 15.9326 8.72668 15.7037C9.27464 15.4748 9.74234 15.0884 10.0705 14.5935C10.3987 14.0986 10.5727 13.5174 10.5703 12.9235C10.5671 12.13 10.2496 11.37 9.68738 10.81C9.12511 10.25 8.36386 9.93554 7.57029 9.93555ZM7.57029 14.4955C7.35312 14.5146 7.13436 14.4882 6.92792 14.4182C6.72148 14.3481 6.53186 14.2359 6.37112 14.0886C6.21038 13.9413 6.08203 13.7623 5.99423 13.5627C5.90642 13.3632 5.86107 13.1476 5.86107 12.9295C5.86107 12.7115 5.90642 12.4959 5.99423 12.2964C6.08203 12.0968 6.21038 11.9177 6.37112 11.7705C6.53186 11.6232 6.72148 11.511 6.92792 11.4409C7.13436 11.3709 7.35312 11.3445 7.57029 11.3635C7.78746 11.3445 8.00622 11.3709 8.21266 11.4409C8.4191 11.511 8.60872 11.6232 8.76946 11.7705C8.93019 11.9177 9.05855 12.0968 9.14635 12.2964C9.23416 12.4959 9.2795 12.7115 9.2795 12.9295C9.2795 13.1476 9.23416 13.3632 9.14635 13.5627C9.05855 13.7623 8.93019 13.9413 8.76946 14.0886C8.60872 14.2359 8.4191 14.3481 8.21266 14.4182C8.00622 14.4882 7.78746 14.5146 7.57029 14.4955ZM16.4263 9.93555C15.8324 9.93555 15.2519 10.1118 14.7583 10.442C14.2647 10.7722 13.8802 11.2414 13.6535 11.7903C13.4268 12.3392 13.3681 12.943 13.4848 13.5252C13.6016 14.1075 13.8885 14.642 14.3092 15.0611C14.73 15.4802 15.2657 15.765 15.8484 15.8794C16.4311 15.9938 17.0347 15.9326 17.5827 15.7037C18.1306 15.4748 18.5983 15.0884 18.9265 14.5935C19.2547 14.0986 19.4287 13.5174 19.4263 12.9235C19.4231 12.13 19.1056 11.37 18.5434 10.81C17.9811 10.25 17.2199 9.93554 16.4263 9.93555ZM17.9983 12.9235C18.0007 13.235 17.9105 13.5401 17.7392 13.8001C17.5679 14.0602 17.3233 14.2636 17.0362 14.3844C16.7492 14.5052 16.4328 14.5381 16.127 14.4788C15.8213 14.4195 15.5401 14.2707 15.319 14.0514C15.098 13.832 14.9471 13.5519 14.8854 13.2467C14.8238 12.9414 14.8542 12.6247 14.9728 12.3368C15.0915 12.0488 15.2929 11.8026 15.5517 11.6293C15.8105 11.4561 16.1149 11.3636 16.4263 11.3635C16.8411 11.3635 17.2392 11.5275 17.5336 11.8197C17.8281 12.1119 17.9951 12.5087 17.9983 12.9235Z" fill="#23AE39"/>
<path d="M11.999 0C9.62565 0 7.30557 0.703788 5.33219 2.02236C3.3588 3.34094 1.82073 5.21508 0.912474 7.4078C0.00422285 9.60051 -0.233417 12.0133 0.229605 14.3411C0.692628 16.6689 1.83552 18.807 3.51375 20.4853C5.19198 22.1635 7.33017 23.3064 9.65794 23.7694C11.9857 24.2324 14.3985 23.9948 16.5912 23.0866C18.7839 22.1783 20.6581 20.6402 21.9767 18.6668C23.2952 16.6935 23.999 14.3734 23.999 12C23.999 10.4241 23.6886 8.8637 23.0856 7.4078C22.4825 5.95189 21.5986 4.62902 20.4843 3.51472C19.37 2.40042 18.0471 1.5165 16.5912 0.913446C15.1353 0.310389 13.5749 0 11.999 0ZM20.855 12.924C20.8562 13.7862 20.6057 14.6301 20.1341 15.3519C19.6626 16.0738 18.9905 16.6422 18.2005 16.9876C17.4104 17.3329 16.5367 17.4401 15.6866 17.2959C14.8366 17.1517 14.0471 16.7625 13.415 16.176L11.999 17.724L10.583 16.176C10.1544 16.57 9.65236 16.8756 9.10559 17.0756C8.55882 17.2755 7.97802 17.3658 7.39635 17.3413C6.81468 17.3168 6.24354 17.178 5.71554 16.9327C5.18753 16.6875 4.71299 16.3406 4.31903 15.912C3.92506 15.4834 3.61938 14.9813 3.41944 14.4346C3.21949 13.8878 3.1292 13.307 3.15371 12.7253C3.17823 12.1437 3.31707 11.5725 3.56231 11.0445C3.80755 10.5165 4.15439 10.042 4.58303 9.648L3.14303 8.088H6.35903C8.0219 6.94982 9.98994 6.3408 12.005 6.3408C14.0201 6.3408 15.9882 6.94982 17.651 8.088H20.855L19.415 9.66C19.8671 10.0754 20.2285 10.5797 20.4763 11.1415C20.7241 11.7032 20.853 12.3101 20.855 12.924Z" fill="#23AE39"/>
<path d="M15.3228 8.45995C14.2697 8.02032 13.1399 7.79395 11.9988 7.79395C10.8577 7.79395 9.72786 8.02032 8.6748 8.45995C9.60544 8.77046 10.4207 9.35471 11.0137 10.1362C11.6068 10.9177 11.9502 11.8601 11.9988 12.8399C12.0507 11.861 12.3952 10.9202 12.9879 10.1393C13.5805 9.35835 14.3939 8.77333 15.3228 8.45995Z" fill="#23AE39"/>
</svg>
